<svg width="18" height="18" viewBox="0 0 18 18" fill="none" xmlns="http://www.w3.org/2000/svg">
<path d="M1.318 7.72162C0.574005 7.72162 -0.0139942 7.00214 0.130005 6.23126C0.910006 2.08137 4.95401 0 8.99801 0C13.042 0 17.074 2.08137 17.866 6.23126C18.01 7.00214 17.41 7.72162 16.678 7.72162H1.318Z" fill="white"/>
<path d="M1.2 15.4304H16.8C17.46 15.4304 18 16.0086 18 16.7152C18 17.4218 17.46 18 16.8 18H1.2C0.539999 18 0 17.4218 0 16.7152C0 16.0086 0.539999 15.4304 1.2 15.4304Z" fill="white"/>
<path d="M16.8 10.2912H1.2C0.539999 10.2912 0 10.8694 0 11.576C0 12.2827 0.539999 12.8608 1.2 12.8608H16.8C17.46 12.8608 18 12.2827 18 11.576C18 10.8694 17.46 10.2912 16.8 10.2912Z" fill="white"/>
</svg>
